# xmcd
#
# Track frame offsets:
#	150
#	14058
#	27377
#	44198
#	54560
#	70481
#	83141
#	97421
#	114077
#	126548
#	146947
#	164460
#	175785
#	186848
#	200104
#	215512
#	225015
#	239891
#	254396
#
# Disc length: 3552 seconds
#
# Revision: 1
# Processed by: cddbd v1.5.2PL0 Copyright (c) Steve Scherf et al.
# Submitted via: audiograbber 1.83.01
#
DISCID=2d0dde13
DTITLE=Charles Smith - Ashes to Ashes
DYEAR=2011
DGENRE=Soul - Southern Soul
TTITLE0=My Great Loss (Ashes To Ashes)
TTITLE1=Glad To Be Home
TTITLE2=I'm Useless
TTITLE3=Pull Me Out Of The Water
TTITLE4=Why Can't I Cry
TTITLE5=It's Getting Harder To Get  By
TTITLE6=Full Time Fool
TTITLE7=I Want To Love You
TTITLE8=Stand Up And Take It Like A Man
TTITLE9=The Only Time You Say You Love Me
TTITLE10=Two Pillows
TTITLE11=How Many Times
TTITLE12=Answer My Prayer
TTITLE13=Walk Slow
TTITLE14=Love's Old Triangle
TTITLE15=Reach That Mountain
TTITLE16=Why Can't I Cry (alt version)
TTITLE17=It's Getting Harder To Get  By (alt version) 	
TTITLE18=Full Time Fool (alt version)
EXTD=
EXTT0=
EXTT1=
EXTT2=
EXTT3=
EXTT4=
EXTT5=
EXTT6=
EXTT7=
EXTT8=
EXTT9=
EXTT10=
EXTT11=
EXTT12=
EXTT13=
EXTT14=
EXTT15=
EXTT16=
EXTT17=
EXTT18=
PLAYORDER=
